<?xml version="1.0" encoding="utf-8"?>
<!-- Generator: Adobe Illustrator 16.0.3, SVG Export Plug-In . SVG Version: 6.00 Build 0)  -->
<!DOCTYPE svg PUBLIC "-//W3C//DTD SVG 1.1//EN" "http://www.w3.org/Graphics/SVG/1.1/DTD/svg11.dtd">
<svg version="1.1" id="Layer_1" xmlns="http://www.w3.org/2000/svg" xmlns:xlink="http://www.w3.org/1999/xlink" x="0px" y="0px"
	 width="612px" height="678px" viewBox="0 0 612 678" enable-background="new 0 0 612 678" xml:space="preserve">
<g display="none">
	<g display="inline">
		<path d="M500.729,56.625c-1.848-1.343-44.867-32.187-114.988-47.071v44.019c38.095,9.278,65.875,23.3,80.275,31.717
			c-2.799,30.455-15.244,104.363-70.169,184.361V92.858l-10.106-5.34l-32.724-17.293v62.837h-58.225V44.771
			c5.27-0.244,10.13-0.363,14.777-0.363c16.786,0,33.756,1.343,50.44,3.995l3.471,0.558V5.547l-2.58-0.363
			c-16.951-2.399-34.219-3.61-51.331-3.61c-5.865,0-11.9,0.158-17.926,0.449c-12.326,0.595-24.811,1.828-37.111,3.656
			c-21.106,3.149-42.426,8.164-63.378,14.909l-2.078,0.677v45.34l4.008-1.431c19.512-6.949,39.305-12.217,58.883-15.669v176.793
			l42.825,22.633v-73.046h58.225v207.043l5.057-4.69c13.08-12.159,25.536-24.972,37.027-38.071
			c49.83-56.846,76.58-113.421,90.241-150.877c23.924-65.563,24.201-113.336,24.201-115.347V63.043L500.729,56.625z"/>
		<path d="M304.922,367.8c-81.413-66.555-120.809-140.837-139.54-191.613c-14.763-39.999-19.677-72.72-21.315-89.783
			c7.748-3.959,15.65-7.701,23.607-11.152V28.943c-18.834,7.301-37.687,16.093-56.134,26.242l-11.097,6.091l-0.009,12.654
			c0,1.999,0.209,49.686,24.133,115.347c21.845,59.957,68.614,147.268,167.349,222.819l13.006,9.971l13.022-9.971
			c4.593-3.51,9.16-7.166,13.695-10.861v-56.902C323.063,352.408,314.122,360.282,304.922,367.8z"/>
	</g>
	<g display="inline">
		<g>
			<polygon points="60.037,624.539 11.353,624.539 11.353,583.51 -1.533,583.51 -1.533,676.043 11.353,676.043 11.353,636.826 
				60.037,636.826 60.037,676.043 72.927,676.043 72.927,583.51 60.037,583.51 			"/>
			<polygon points="123.012,635.598 173.494,635.598 173.494,623.32 123.012,623.32 123.012,596.049 175.961,596.049 
				175.961,583.51 110.243,583.51 110.243,676.043 177.439,676.043 177.439,663.385 123.012,663.385 			"/>
			<path d="M275.057,634.396c5.245-5.293,8.083-12.723,8.009-20.934c-0.141-14.889-10.994-29.953-31.44-29.953h-41.041v92.533
				h12.881v-32.674h19.032l29.79,32.674h17.248l-30.9-33.572C265.228,641.389,270.833,638.658,275.057,634.396z M251.626,595.912
				c5.392,0,9.936,1.705,13.129,4.943c3.115,3.16,4.86,7.711,4.811,12.48c-0.077,7.977-3.383,17.492-18.677,17.492h-27.423v-34.916
				H251.626z"/>
			<path d="M357.868,582.174c-32.183,0-46.589,23.82-46.589,47.465c0,23.07,14.577,47.875,46.589,47.875
				c31.825,0,46.461-24.678,46.594-47.621c0.058-13.855-4.661-26.277-13.311-34.975C382.839,586.59,371.328,582.174,357.868,582.174
				z M333.687,603.654c5.914-5.947,14.275-9.098,24.182-9.098c23.445,0,33.951,17.668,33.951,35.209
				c0,17.006-10.632,35.336-33.951,35.336c-23.089,0-33.728-18.34-33.83-35.355C323.98,619.236,327.403,609.973,333.687,603.654z"/>
			<polygon points="451.346,635.598 501.83,635.598 501.83,623.32 451.346,623.32 451.346,596.049 504.297,596.049 504.297,583.51 
				438.573,583.51 438.573,676.043 505.765,676.043 505.765,663.385 451.346,663.385 			"/>
			<path d="M576.047,622.424l-0.946-0.176c-14.796-2.76-23.791-5.031-23.791-13.203c0-13.953,20.632-14.361,22.947-14.361
				c10.371,0.127,18.317,1.92,23.485,10.219l1.608,2.592l10.887-6.424l-1.824-2.73c-8.921-13.33-20.085-16.049-34.122-16.049
				c-12.207,0-23.206,3.773-29.397,10.111c-4.447,4.514-6.62,10.217-6.475,16.906c0,18.506,18.277,22.096,34.425,25.254
				c15.64,2.975,25.873,5.666,25.785,15.416c0,13.66-17.023,15.123-24.338,15.123c-9.75,0-22.031-4.787-26.652-13.941l-1.395-2.771
				l-11.501,5.754l1.414,2.797c7.61,15.076,24.688,20.457,38.134,20.457c23.197,0,37.117-10.197,37.224-27.281
				C611.515,629.25,592.662,625.631,576.047,622.424z"/>
		</g>
		<g>
			<path d="M76.379,478.621H47.108v72.906H28.221v-72.906H-0.105v-15.834h76.484V478.621z"/>
			<path d="M167.245,551.527h-21.159c-0.263-0.801-0.887-5.012-1.863-12.637c-0.799-8.064-2.91-13.592-6.317-16.566
				c-3.424-2.965-9.337-4.455-17.767-4.455h-15.161v33.658H86.09v-88.74h43.371c12.685,0,21.548,1.736,26.599,5.197
				c6.567,4.516,9.848,11.047,9.848,19.559c0,13.379-5.635,22.037-16.892,25.928c5.582,1.861,9.53,4.572,11.837,8.113
				c2.305,3.549,3.724,9.057,4.256,16.506C165.553,544.039,166.26,548.504,167.245,551.527z M145.149,489.934
				c0-4.076-1.038-6.992-3.129-8.707c-2.091-1.736-5.588-2.605-10.482-2.605h-26.56v23.422h26.56
				C140.616,502.043,145.149,498.006,145.149,489.934z"/>
			<path d="M267.802,551.527H245.78l-8.531-20.623h-33.85l-8.541,20.623h-22.172l36.72-88.74h21.676L267.802,551.527z
				 M232.998,515.07l-12.687-30.988l-12.67,30.988H232.998z"/>
			<path d="M292.153,551.527h-18.881v-88.74h18.881V551.527z"/>
			<path d="M387.666,551.527h-23.147l-36.313-65.066v65.066h-17.959v-88.74h24.088l35.37,66.1v-66.1h17.961V551.527z"/>
			<path d="M424.382,551.527h-18.893v-88.74h18.893V551.527z"/>
			<path d="M519.897,551.527h-23.152l-36.312-65.066v65.066H442.47v-88.74h24.097l35.381,66.1v-66.1h17.95V551.527z"/>
			<path d="M610.09,551.527h-39.64c-12.243,0-21.33-2.311-27.273-6.924c-9.311-7.264-13.967-19.725-13.967-37.373
				c0-17.297,4.607-29.584,13.836-36.857c6.382-5.051,15.791-7.586,28.198-7.586h38.846v15.834h-36.574
				c-8.424,0-14.454,2.107-18.101,6.33c-3.632,4.201-5.456,11.242-5.456,21.08c0,11.701,2.136,19.813,6.381,24.348
				c3.38,3.559,9.322,5.322,17.84,5.322h17.029V514.68h-24.752v-15.826h43.633V551.527z"/>
		</g>
	</g>
</g>
<g display="none">
	<g display="inline">
		<linearGradient id="SVGID_1_" gradientUnits="userSpaceOnUse" x1="351.0781" y1="1.9307" x2="351.0781" y2="383.541">
			<stop  offset="0" style="stop-color:#FAA61A"/>
			<stop  offset="1" style="stop-color:#F58220"/>
		</linearGradient>
		<path fill="url(#SVGID_1_)" d="M502.599,57.02c-1.849-1.344-44.897-32.208-115.065-47.103v44.048
			c38.121,9.284,65.919,23.314,80.33,31.737c-2.8,30.477-15.255,104.433-70.217,184.485V93.277l-10.113-5.345l-32.745-17.304v62.88
			h-58.265V45.157c5.274-0.244,10.138-0.364,14.787-0.364c16.797,0,33.779,1.344,50.474,3.998l3.474,0.559V5.907l-2.581-0.363
			c-16.963-2.4-34.242-3.613-51.366-3.613c-5.869,0-11.909,0.159-17.938,0.449c-12.333,0.595-24.827,1.83-37.136,3.659
			c-21.119,3.151-42.453,8.169-63.421,14.918l-2.079,0.678v45.371l4.01-1.432c19.524-6.954,39.331-12.226,58.923-15.68v176.911
			l42.853,22.649v-73.096h58.265v207.183l5.06-4.693c13.089-12.167,25.554-24.988,37.053-38.097
			c49.863-56.884,76.632-113.497,90.302-150.979c23.939-65.607,24.217-113.412,24.217-115.424V63.442L502.599,57.02z"/>
		<linearGradient id="SVGID_2_" gradientUnits="userSpaceOnUse" x1="217.7153" y1="29.3188" x2="217.7153" y2="422.7065">
			<stop  offset="0" style="stop-color:#FAA61A"/>
			<stop  offset="1" style="stop-color:#F58220"/>
		</linearGradient>
		<path fill="url(#SVGID_2_)" d="M306.661,368.403c-81.467-66.6-120.891-140.932-139.634-191.742
			c-14.772-40.026-19.69-72.769-21.329-89.844c7.752-3.961,15.66-7.706,23.622-11.16V29.319
			c-18.846,7.306-37.711,16.104-56.172,26.259l-11.104,6.096l-0.01,12.663c0,2,0.209,49.72,24.149,115.424
			c21.861,59.996,68.661,147.366,167.461,222.969l13.016,9.977l13.031-9.977c4.595-3.513,9.166-7.171,13.703-10.869v-56.94
			C324.814,353.001,315.867,360.88,306.661,368.403z"/>
	</g>
	<g display="inline">
		<g>
			<polygon points="61.611,625.313 12.894,625.313 12.894,584.26 0,584.26 0,676.854 12.894,676.854 12.894,637.611 61.611,637.611 
				61.611,676.854 74.51,676.854 74.51,584.26 61.611,584.26 			"/>
			<polygon points="124.627,636.377 175.145,636.377 175.145,624.093 124.627,624.093 124.627,596.803 177.614,596.803 
				177.614,584.26 111.851,584.26 111.851,676.854 179.092,676.854 179.092,664.186 124.627,664.186 			"/>
			<path d="M276.775,635.178c5.249-5.299,8.088-12.733,8.015-20.949c-0.141-14.894-11.001-29.969-31.461-29.969h-41.068v92.595
				h12.889v-32.696h19.046l29.808,32.696h17.26l-30.92-33.599C266.94,642.173,272.55,639.441,276.775,635.178z M253.329,596.671
				c5.396,0,9.942,1.707,13.138,4.942c3.118,3.166,4.864,7.723,4.815,12.488c-0.078,7.986-3.386,17.51-18.69,17.51H225.15v-34.94
				H253.329z"/>
			<path d="M359.643,582.918c-32.203,0-46.62,23.837-46.62,47.503c0,23.085,14.587,47.907,46.62,47.907
				c31.847,0,46.492-24.695,46.624-47.653c0.059-13.865-4.664-26.296-13.318-34.999
				C384.631,587.338,373.112,582.918,359.643,582.918z M335.444,604.413c5.918-5.947,14.285-9.099,24.198-9.099
				c23.461,0,33.975,17.68,33.975,35.229c0,17.021-10.641,35.364-33.975,35.364c-23.105,0-33.75-18.353-33.853-35.384
				C325.731,620.005,329.156,610.74,335.444,604.413z"/>
			<polygon points="453.184,636.377 503.701,636.377 503.701,624.093 453.184,624.093 453.184,596.803 506.17,596.803 
				506.17,584.26 440.402,584.26 440.402,676.854 507.639,676.854 507.639,664.186 453.184,664.186 			"/>
			<path d="M577.968,623.195l-0.946-0.171c-14.807-2.761-23.808-5.034-23.808-13.216c0-13.962,20.646-14.372,22.964-14.372
				c10.376,0.132,18.328,1.922,23.5,10.226l1.609,2.596l10.894-6.426l-1.824-2.736c-8.928-13.333-20.1-16.061-34.146-16.061
				c-12.216,0-23.222,3.781-29.417,10.123c-4.449,4.518-6.625,10.226-6.479,16.914c0,18.519,18.29,22.109,34.448,25.271
				c15.65,2.981,25.891,5.674,25.803,15.427c0,13.669-17.036,15.138-24.354,15.138c-9.757,0-22.046-4.796-26.671-13.952
				l-1.396-2.771l-11.508,5.752l1.415,2.805c7.615,15.085,24.704,20.471,38.159,20.471c23.213,0,37.141-10.206,37.248-27.305
				C613.459,630.025,594.594,626.405,577.968,623.195z"/>
		</g>
		<g>
			<linearGradient id="SVGID_3_" gradientUnits="userSpaceOnUse" x1="39.6968" y1="463.457" x2="39.6968" y2="552.2568">
				<stop  offset="0" style="stop-color:#FAA61A"/>
				<stop  offset="1" style="stop-color:#F58220"/>
			</linearGradient>
			<path fill="url(#SVGID_3_)" d="M77.964,479.298H48.673v72.959H29.774v-72.959H1.429v-15.841h76.535V479.298z"/>
			<linearGradient id="SVGID_4_" gradientUnits="userSpaceOnUse" x1="128.2866" y1="463.457" x2="128.2866" y2="552.2568">
				<stop  offset="0" style="stop-color:#FAA61A"/>
				<stop  offset="1" style="stop-color:#F58220"/>
			</linearGradient>
			<path fill="url(#SVGID_4_)" d="M168.891,552.257h-21.173c-0.263-0.801-0.888-5.016-1.863-12.65
				c-0.8-8.069-2.913-13.597-6.323-16.577c-3.425-2.967-9.342-4.459-17.777-4.459h-15.172v33.687h-18.9v-88.8h43.4
				c12.694,0,21.563,1.731,26.617,5.2c6.572,4.518,9.855,11.05,9.855,19.568c0,13.392-5.64,22.056-16.904,25.944
				c5.586,1.868,9.538,4.58,11.845,8.122c2.308,3.547,3.727,9.064,4.259,16.515C167.198,544.758,167.905,549.227,168.891,552.257z
				 M146.781,490.616c0-4.074-1.039-6.996-3.132-8.714c-2.093-1.736-5.591-2.604-10.489-2.604h-26.578v23.437h26.578
				C142.244,502.734,146.781,498.694,146.781,490.616z"/>
			<linearGradient id="SVGID_5_" gradientUnits="userSpaceOnUse" x1="221.9258" y1="463.457" x2="221.9258" y2="552.2568">
				<stop  offset="0" style="stop-color:#FAA61A"/>
				<stop  offset="1" style="stop-color:#F58220"/>
			</linearGradient>
			<path fill="url(#SVGID_5_)" d="M269.516,552.257h-22.037l-8.538-20.637H205.07l-8.547,20.637h-22.188l36.745-88.8h21.69
				L269.516,552.257z M234.688,515.77l-12.694-31.008l-12.68,31.008H234.688z"/>
			<linearGradient id="SVGID_6_" gradientUnits="userSpaceOnUse" x1="284.437" y1="463.457" x2="284.437" y2="552.2568">
				<stop  offset="0" style="stop-color:#FAA61A"/>
				<stop  offset="1" style="stop-color:#F58220"/>
			</linearGradient>
			<path fill="url(#SVGID_6_)" d="M293.884,552.257H274.99v-88.8h18.895V552.257z"/>
			<linearGradient id="SVGID_7_" gradientUnits="userSpaceOnUse" x1="350.7246" y1="463.457" x2="350.7246" y2="552.2568">
				<stop  offset="0" style="stop-color:#FAA61A"/>
				<stop  offset="1" style="stop-color:#F58220"/>
			</linearGradient>
			<path fill="url(#SVGID_7_)" d="M389.46,552.257h-23.163l-36.336-65.109v65.109h-17.973v-88.8h24.105l35.394,66.139v-66.139
				h17.973V552.257z"/>
			<linearGradient id="SVGID_8_" gradientUnits="userSpaceOnUse" x1="416.748" y1="463.457" x2="416.748" y2="552.2568">
				<stop  offset="0" style="stop-color:#FAA61A"/>
				<stop  offset="1" style="stop-color:#F58220"/>
			</linearGradient>
			<path fill="url(#SVGID_8_)" d="M426.2,552.257h-18.904v-88.8H426.2V552.257z"/>
			<linearGradient id="SVGID_9_" gradientUnits="userSpaceOnUse" x1="483.041" y1="463.457" x2="483.041" y2="552.2568">
				<stop  offset="0" style="stop-color:#FAA61A"/>
				<stop  offset="1" style="stop-color:#F58220"/>
			</linearGradient>
			<path fill="url(#SVGID_9_)" d="M521.781,552.257h-23.168l-36.336-65.109v65.109H444.3v-88.8h24.115l35.403,66.139v-66.139h17.963
				V552.257z"/>
			<linearGradient id="SVGID_10_" gradientUnits="userSpaceOnUse" x1="571.5674" y1="463.457" x2="571.5674" y2="552.2568">
				<stop  offset="0" style="stop-color:#FAA61A"/>
				<stop  offset="1" style="stop-color:#F58220"/>
			</linearGradient>
			<path fill="url(#SVGID_10_)" d="M612.035,552.257h-39.668c-12.25,0-21.344-2.313-27.291-6.933
				c-9.317-7.27-13.977-19.739-13.977-37.395c0-17.313,4.61-29.603,13.845-36.887c6.387-5.054,15.802-7.586,28.218-7.586h38.873
				v15.841h-36.6c-8.43,0-14.465,2.107-18.114,6.337c-3.634,4.205-5.459,11.245-5.459,21.095c0,11.709,2.137,19.827,6.386,24.358
				c3.381,3.562,9.328,5.333,17.852,5.333h17.04v-21.036h-24.769v-15.841h43.664V552.257z"/>
		</g>
	</g>
</g>
<rect y="534.231" display="none" width="612" height="201"/>
<g>
	<g>
		<path fill="#FFFFFF" d="M502.059,57.331c-1.852-1.34-44.854-32.173-114.941-47.052V54.28c38.08,9.274,65.848,23.29,80.243,31.701
			c-2.797,30.448-15.243,104.323-70.146,184.289V93.549l-10.098-5.336l-32.71-17.291v62.817h-58.201V45.484
			c5.266-0.244,10.126-0.365,14.771-0.365c16.774,0,33.743,1.34,50.419,3.991l3.471,0.56V6.273l-2.583-0.36
			c-16.939-2.398-34.201-3.611-51.307-3.611c-5.867,0-11.896,0.161-17.924,0.448c-12.317,0.595-24.797,1.828-37.095,3.655
			c-21.094,3.148-42.403,8.163-63.351,14.902l-2.076,0.677v45.322l4.006-1.433c19.5-6.945,39.286-12.213,58.859-15.663v176.725
			l42.81,22.622v-73.017h58.201V383.5l5.049-4.688c13.08-12.154,25.526-24.961,37.018-38.055
			c49.806-56.823,76.55-113.373,90.205-150.819c23.908-65.536,24.19-113.285,24.19-115.297V63.749L502.059,57.331z"/>
		<path fill="#FFFFFF" d="M306.333,368.378c-81.381-66.53-120.765-140.78-139.486-191.535
			c-14.756-39.985-19.671-72.69-21.303-89.747c7.741-3.957,15.638-7.695,23.591-11.146V29.661
			c-18.823,7.295-37.67,16.086-56.106,26.233l-11.094,6.086l-0.007,12.646c0,1.998,0.207,49.668,24.121,115.302
			c21.837,59.932,68.586,147.208,167.278,222.729l13.007,9.966l13.017-9.966c4.59-3.509,9.151-7.164,13.684-10.857v-56.881
			C324.466,352.994,315.528,360.864,306.333,368.378z"/>
	</g>
	<g>
		<g>
			<polygon fill="#FFFFFF" points="61.547,625.011 12.877,625.011 12.877,584.002 0,584.002 0,676.497 12.877,676.497 
				12.877,637.297 61.547,637.297 61.547,676.497 74.432,676.497 74.432,584.002 61.547,584.002 			"/>
			<polygon fill="#FFFFFF" points="124.493,636.063 174.956,636.063 174.956,623.793 124.493,623.793 124.493,596.531 
				177.422,596.531 177.422,584.002 111.732,584.002 111.732,676.497 178.898,676.497 178.898,663.842 124.493,663.842 			"/>
			<path fill="#FFFFFF" d="M276.477,634.864c5.241-5.292,8.08-12.719,8.007-20.926c-0.139-14.878-10.987-29.937-31.431-29.937
				h-41.018v92.495h12.873v-32.661h19.023l29.778,32.661h17.239l-30.887-33.563C266.652,641.854,272.256,639.124,276.477,634.864z
				 M253.053,596.399c5.393,0,9.932,1.706,13.126,4.938c3.112,3.162,4.861,7.714,4.808,12.476c-0.073,7.978-3.38,17.49-18.667,17.49
				h-27.412v-34.903H253.053z"/>
			<path fill="#FFFFFF" d="M359.252,582.662c-32.164,0-46.569,23.811-46.569,47.451c0,23.061,14.571,47.855,46.569,47.855
				c31.813,0,46.442-24.668,46.579-47.603c0.058-13.85-4.659-26.267-13.305-34.961C384.213,587.077,372.712,582.662,359.252,582.662
				z M335.08,604.134c5.916-5.94,14.27-9.089,24.172-9.089c23.44,0,33.938,17.661,33.938,35.19
				c0,17.003-10.624,35.326-33.938,35.326c-23.08,0-33.714-18.333-33.812-35.346C325.383,619.709,328.804,610.454,335.08,604.134z"
				/>
			<polygon fill="#FFFFFF" points="452.692,636.063 503.16,636.063 503.16,623.793 452.692,623.793 452.692,596.531 
				505.626,596.531 505.626,584.002 439.924,584.002 439.924,676.497 507.088,676.497 507.088,663.842 452.692,663.842 			"/>
			<path fill="#FFFFFF" d="M577.341,622.896l-0.945-0.17c-14.785-2.759-23.781-5.029-23.781-13.202
				c0-13.947,20.624-14.356,22.943-14.356c10.36,0.132,18.304,1.92,23.47,10.214l1.608,2.593l10.887-6.418l-1.822-2.733
				c-8.919-13.319-20.078-16.043-34.113-16.043c-12.203,0-23.197,3.776-29.386,10.111c-4.444,4.513-6.618,10.215-6.472,16.896
				c0,18.499,18.274,22.085,34.415,25.243c15.634,2.978,25.857,5.668,25.77,15.409c0,13.655-17.018,15.122-24.327,15.122
				c-9.747,0-22.018-4.79-26.638-13.938l-1.394-2.769l-11.501,5.746l1.413,2.802c7.612,15.068,24.679,20.448,38.119,20.448
				c23.188,0,37.105-10.194,37.212-27.275C612.799,629.719,593.949,626.103,577.341,622.896z"/>
		</g>
		<g>
			<path fill="#FFFFFF" d="M77.882,479.153H48.618v72.88H29.742v-72.88H1.428V463.33h76.455V479.153z"/>
			<path fill="#FFFFFF" d="M168.706,552.033h-21.147c-0.261-0.799-0.885-5.01-1.864-12.637c-0.794-8.06-2.907-13.581-6.313-16.559
				c-3.418-2.963-9.332-4.455-17.758-4.455h-15.156v33.65H87.59V463.33h43.348c12.68,0,21.54,1.729,26.589,5.194
				c6.566,4.513,9.846,11.038,9.846,19.547c0,13.377-5.633,22.032-16.886,25.916c5.58,1.867,9.527,4.576,11.832,8.114
				c2.305,3.543,3.724,9.055,4.254,16.496C167.018,544.543,167.724,549.007,168.706,552.033z M146.625,490.459
				c0-4.069-1.041-6.988-3.133-8.703c-2.088-1.735-5.583-2.603-10.473-2.603h-26.552v23.411h26.552
				C142.093,502.564,146.625,498.529,146.625,490.459z"/>
			<path fill="#FFFFFF" d="M269.225,552.033h-22.013l-8.528-20.614h-33.833l-8.541,20.614h-22.164l36.708-88.703h21.667
				L269.225,552.033z M234.435,515.586l-12.68-30.975l-12.668,30.975H234.435z"/>
			<path fill="#FFFFFF" d="M293.567,552.033H274.69V463.33h18.876V552.033z"/>
			<path fill="#FFFFFF" d="M389.037,552.033h-23.139l-36.296-65.039v65.039h-17.953V463.33h24.084l35.351,66.066V463.33h17.953
				V552.033z"/>
			<path fill="#FFFFFF" d="M425.743,552.033h-18.889V463.33h18.889V552.033z"/>
			<path fill="#FFFFFF" d="M521.221,552.033h-23.148l-36.296-65.039v65.039h-17.953V463.33h24.083l35.371,66.066V463.33h17.943
				V552.033z"/>
			<path fill="#FFFFFF" d="M611.376,552.033h-39.629c-12.232,0-21.316-2.31-27.262-6.925c-9.308-7.261-13.957-19.718-13.957-37.354
				c0-17.296,4.601-29.571,13.83-36.848c6.375-5.048,15.78-7.577,28.188-7.577h38.83v15.823h-36.56
				c-8.421,0-14.454,2.105-18.099,6.33c-3.626,4.201-5.448,11.233-5.448,21.072c0,11.696,2.134,19.806,6.374,24.333
				c3.382,3.557,9.317,5.326,17.836,5.326h17.018v-21.014h-24.736v-15.824h43.615V552.033z"/>
		</g>
	</g>
</g>
</svg>
