<?xml version="1.0" encoding="utf-8"?>
<!-- Generator: Adobe Illustrator 16.0.3, SVG Export Plug-In . SVG Version: 6.00 Build 0)  -->
<!DOCTYPE svg PUBLIC "-//W3C//DTD SVG 1.1//EN" "http://www.w3.org/Graphics/SVG/1.1/DTD/svg11.dtd">
<svg version="1.1" id="Layer_1" xmlns="http://www.w3.org/2000/svg" xmlns:xlink="http://www.w3.org/1999/xlink" x="0px" y="0px"
	 width="612px" height="678px" viewBox="0 0 612 678" enable-background="new 0 0 612 678" xml:space="preserve">
<g display="none">
	<g display="inline">
		<path d="M345.208,320.067c-0.37-0.269-8.987-6.447-23.033-9.429v8.817c7.631,1.858,13.195,4.667,16.08,6.353
			c-0.561,6.101-3.054,20.905-14.056,36.929v-35.413l-2.024-1.07l-6.555-3.464v12.587h-11.663v-17.686
			c1.056-0.049,2.029-0.073,2.96-0.073c3.362,0,6.762,0.269,10.104,0.8l0.695,0.112v-8.696l-0.517-0.073
			c-3.396-0.48-6.854-0.723-10.282-0.723c-1.175,0-2.384,0.032-3.591,0.09c-2.469,0.119-4.97,0.366-7.434,0.732
			c-4.228,0.631-8.498,1.635-12.695,2.986l-0.416,0.136v9.082l0.803-0.287c3.908-1.392,7.873-2.447,11.795-3.139v35.413l8.578,4.534
			v-14.632h11.663v41.473l1.013-0.939c2.62-2.436,5.115-5.002,7.417-7.626c9.981-11.387,15.34-22.719,18.076-30.222
			c4.792-13.133,4.848-22.702,4.848-23.105v-2.183L345.208,320.067z"/>
		<path d="M305.986,382.398c-16.308-13.332-24.199-28.211-27.951-38.382c-2.957-8.012-3.941-14.566-4.27-17.984
			c1.552-0.793,3.135-1.542,4.729-2.234v-9.276c-3.772,1.462-7.549,3.224-11.244,5.256l-2.223,1.22l-0.002,2.535
			c0,0.4,0.042,9.953,4.834,23.105c4.376,12.01,13.744,29.499,33.521,44.633l2.605,1.997l2.608-1.997
			c0.92-0.703,1.835-1.436,2.743-2.176v-11.398C309.62,379.315,307.829,380.892,305.986,382.398z"/>
	</g>
	<g display="inline">
		<g>
			<polygon points="256.934,433.825 247.182,433.825 247.182,425.606 244.601,425.606 244.601,444.142 247.182,444.142 
				247.182,436.286 256.934,436.286 256.934,444.142 259.516,444.142 259.516,425.606 256.934,425.606 			"/>
			<polygon points="269.548,436.04 279.66,436.04 279.66,433.581 269.548,433.581 269.548,428.118 280.154,428.118 280.154,425.606 
				266.99,425.606 266.99,444.142 280.45,444.142 280.45,441.606 269.548,441.606 			"/>
			<path d="M300.004,435.8c1.051-1.061,1.619-2.549,1.604-4.193c-0.028-2.982-2.202-6-6.298-6h-8.221v18.535h2.58v-6.545h3.813
				l5.967,6.545h3.455l-6.189-6.725C298.035,437.2,299.158,436.653,300.004,435.8z M295.311,428.091c1.08,0,1.99,0.342,2.63,0.99
				c0.624,0.633,0.974,1.545,0.964,2.5c-0.016,1.598-0.678,3.504-3.741,3.504h-5.493v-6.994H295.311z"/>
			<path d="M316.592,425.339c-6.446,0-9.332,4.771-9.332,9.508c0,4.621,2.92,9.59,9.332,9.59c6.375,0,9.307-4.943,9.333-9.539
				c0.012-2.775-0.934-5.264-2.666-7.006C321.594,426.224,319.288,425.339,316.592,425.339z M311.748,429.642
				c1.185-1.191,2.859-1.822,4.844-1.822c4.696,0,6.801,3.539,6.801,7.053c0,3.406-2.13,7.078-6.801,7.078
				c-4.625,0-6.756-3.674-6.776-7.082C309.804,432.763,310.489,430.907,311.748,429.642z"/>
			<polygon points="335.316,436.04 345.429,436.04 345.429,433.581 335.316,433.581 335.316,428.118 345.923,428.118 
				345.923,425.606 332.758,425.606 332.758,444.142 346.217,444.142 346.217,441.606 335.316,441.606 			"/>
			<path d="M360.295,433.401l-0.189-0.035c-2.964-0.553-4.766-1.008-4.766-2.645c0-2.795,4.133-2.877,4.597-2.877
				c2.077,0.025,3.669,0.385,4.704,2.047l0.322,0.52l2.181-1.287l-0.365-0.547c-1.787-2.67-4.023-3.215-6.835-3.215
				c-2.445,0-4.648,0.756-5.889,2.025c-0.891,0.904-1.326,2.047-1.297,3.387c0,3.707,3.661,4.426,6.896,5.059
				c3.133,0.596,5.183,1.135,5.165,3.088c0,2.736-3.41,3.029-4.875,3.029c-1.953,0-4.413-0.959-5.339-2.793l-0.279-0.555
				l-2.304,1.152l0.283,0.561c1.524,3.02,4.945,4.098,7.639,4.098c4.646,0,7.435-2.043,7.456-5.465
				C367.399,434.769,363.623,434.044,360.295,433.401z"/>
		</g>
		<g>
			<path d="M260.207,404.597h-5.863V419.2h-3.783v-14.604h-5.674v-3.172h15.32V404.597z"/>
			<path d="M278.408,419.2h-4.238c-0.053-0.16-0.178-1.004-0.373-2.531c-0.16-1.615-0.583-2.723-1.266-3.318
				c-0.686-0.594-1.87-0.893-3.559-0.893h-3.037v6.742h-3.783v-17.775h8.688c2.541,0,4.316,0.348,5.328,1.041
				c1.315,0.904,1.973,2.213,1.973,3.918c0,2.68-1.129,4.414-3.384,5.193c1.118,0.373,1.909,0.916,2.371,1.625
				c0.462,0.711,0.746,1.814,0.853,3.307C278.069,417.7,278.211,418.595,278.408,419.2z M273.982,406.862
				c0-0.816-0.208-1.4-0.627-1.744c-0.419-0.348-1.119-0.521-2.1-0.521h-5.32v4.691h5.32
				C273.074,409.288,273.982,408.479,273.982,406.862z"/>
			<path d="M298.551,419.2h-4.411l-1.709-4.131h-6.78l-1.711,4.131h-4.441l7.355-17.775h4.342L298.551,419.2z M291.579,411.897
				l-2.541-6.207l-2.538,6.207H291.579z"/>
			<path d="M303.429,419.2h-3.782v-17.775h3.782V419.2z"/>
			<path d="M322.561,419.2h-4.637l-7.273-13.033V419.2h-3.598v-17.775h4.825l7.085,13.24v-13.24h3.598V419.2z"/>
			<path d="M329.915,419.2h-3.784v-17.775h3.784V419.2z"/>
			<path d="M349.048,419.2h-4.638l-7.273-13.033V419.2h-3.599v-17.775h4.827l7.087,13.24v-13.24h3.596V419.2z"/>
			<path d="M367.114,419.2h-7.94c-2.452,0-4.272-0.463-5.463-1.387c-1.865-1.455-2.798-3.951-2.798-7.486
				c0-3.465,0.923-5.926,2.771-7.383c1.278-1.012,3.163-1.52,5.648-1.52h7.781v3.172h-7.326c-1.688,0-2.896,0.422-3.626,1.268
				c-0.728,0.842-1.093,2.252-1.093,4.223c0,2.344,0.428,3.969,1.278,4.877c0.677,0.713,1.867,1.066,3.573,1.066h3.411v-4.211
				h-4.958v-3.17h8.74V419.2z"/>
		</g>
	</g>
</g>
<g>
	<g>
		<linearGradient id="SVGID_1_" gradientUnits="userSpaceOnUse" x1="351.0781" y1="1.9307" x2="351.0781" y2="383.541">
			<stop  offset="0" style="stop-color:#FAA61A"/>
			<stop  offset="1" style="stop-color:#F58220"/>
		</linearGradient>
		<path fill="url(#SVGID_1_)" d="M502.599,57.02c-1.849-1.344-44.897-32.208-115.065-47.103v44.048
			c38.121,9.284,65.919,23.314,80.33,31.737c-2.8,30.477-15.255,104.433-70.217,184.485V93.277l-10.113-5.345l-32.745-17.304v62.88
			h-58.265V45.157c5.274-0.244,10.138-0.364,14.787-0.364c16.797,0,33.779,1.344,50.474,3.998l3.474,0.559V5.907l-2.581-0.363
			c-16.963-2.4-34.242-3.613-51.366-3.613c-5.869,0-11.909,0.159-17.938,0.449c-12.333,0.595-24.827,1.83-37.136,3.659
			c-21.119,3.151-42.453,8.169-63.421,14.918l-2.079,0.678v45.371l4.01-1.432c19.524-6.954,39.331-12.226,58.923-15.68v176.911
			l42.853,22.649v-73.096h58.265v207.183l5.06-4.693c13.089-12.167,25.554-24.988,37.053-38.097
			c49.863-56.884,76.632-113.497,90.302-150.979c23.939-65.607,24.217-113.412,24.217-115.424V63.442L502.599,57.02z"/>
		<linearGradient id="SVGID_2_" gradientUnits="userSpaceOnUse" x1="217.7153" y1="29.3188" x2="217.7153" y2="422.7065">
			<stop  offset="0" style="stop-color:#FAA61A"/>
			<stop  offset="1" style="stop-color:#F58220"/>
		</linearGradient>
		<path fill="url(#SVGID_2_)" d="M306.661,368.403c-81.467-66.6-120.891-140.932-139.634-191.742
			c-14.772-40.026-19.69-72.769-21.329-89.844c7.752-3.961,15.66-7.706,23.622-11.16V29.319
			c-18.846,7.306-37.711,16.104-56.172,26.259l-11.104,6.096l-0.01,12.663c0,2,0.209,49.72,24.149,115.424
			c21.861,59.996,68.661,147.366,167.461,222.969l13.016,9.977l13.031-9.977c4.595-3.513,9.166-7.171,13.703-10.869v-56.94
			C324.814,353.001,315.867,360.88,306.661,368.403z"/>
	</g>
	<g>
		<g>
			<polygon points="61.611,625.313 12.894,625.313 12.894,584.26 0,584.26 0,676.854 12.894,676.854 12.894,637.611 61.611,637.611 
				61.611,676.854 74.51,676.854 74.51,584.26 61.611,584.26 			"/>
			<polygon points="124.627,636.377 175.145,636.377 175.145,624.093 124.627,624.093 124.627,596.803 177.614,596.803 
				177.614,584.26 111.851,584.26 111.851,676.854 179.092,676.854 179.092,664.186 124.627,664.186 			"/>
			<path d="M276.775,635.178c5.249-5.299,8.088-12.733,8.015-20.949c-0.141-14.894-11.001-29.969-31.461-29.969h-41.068v92.595
				h12.889v-32.696h19.046l29.808,32.696h17.26l-30.92-33.599C266.94,642.173,272.55,639.441,276.775,635.178z M253.329,596.671
				c5.396,0,9.942,1.707,13.138,4.942c3.118,3.166,4.864,7.723,4.815,12.488c-0.078,7.986-3.386,17.51-18.69,17.51H225.15v-34.94
				H253.329z"/>
			<path d="M359.643,582.918c-32.203,0-46.62,23.837-46.62,47.503c0,23.085,14.587,47.907,46.62,47.907
				c31.847,0,46.492-24.695,46.624-47.653c0.059-13.865-4.664-26.296-13.318-34.999
				C384.631,587.338,373.112,582.918,359.643,582.918z M335.444,604.413c5.918-5.947,14.285-9.099,24.198-9.099
				c23.461,0,33.975,17.68,33.975,35.229c0,17.021-10.641,35.364-33.975,35.364c-23.105,0-33.75-18.353-33.853-35.384
				C325.731,620.005,329.156,610.74,335.444,604.413z"/>
			<polygon points="453.184,636.377 503.701,636.377 503.701,624.093 453.184,624.093 453.184,596.803 506.17,596.803 
				506.17,584.26 440.402,584.26 440.402,676.854 507.639,676.854 507.639,664.186 453.184,664.186 			"/>
			<path d="M577.968,623.195l-0.946-0.171c-14.807-2.761-23.808-5.034-23.808-13.216c0-13.962,20.646-14.372,22.964-14.372
				c10.376,0.132,18.328,1.922,23.5,10.226l1.609,2.596l10.894-6.426l-1.824-2.736c-8.928-13.333-20.1-16.061-34.146-16.061
				c-12.216,0-23.222,3.781-29.417,10.123c-4.449,4.518-6.625,10.226-6.479,16.914c0,18.519,18.29,22.109,34.448,25.271
				c15.65,2.981,25.891,5.674,25.803,15.427c0,13.669-17.036,15.138-24.354,15.138c-9.757,0-22.046-4.796-26.671-13.952
				l-1.396-2.771l-11.508,5.752l1.415,2.805c7.615,15.085,24.704,20.471,38.159,20.471c23.213,0,37.141-10.206,37.248-27.305
				C613.459,630.025,594.594,626.405,577.968,623.195z"/>
		</g>
		<g>
			<linearGradient id="SVGID_3_" gradientUnits="userSpaceOnUse" x1="39.6968" y1="463.457" x2="39.6968" y2="552.2568">
				<stop  offset="0" style="stop-color:#FAA61A"/>
				<stop  offset="1" style="stop-color:#F58220"/>
			</linearGradient>
			<path fill="url(#SVGID_3_)" d="M77.964,479.298H48.673v72.959H29.774v-72.959H1.429v-15.841h76.535V479.298z"/>
			<linearGradient id="SVGID_4_" gradientUnits="userSpaceOnUse" x1="128.2866" y1="463.457" x2="128.2866" y2="552.2568">
				<stop  offset="0" style="stop-color:#FAA61A"/>
				<stop  offset="1" style="stop-color:#F58220"/>
			</linearGradient>
			<path fill="url(#SVGID_4_)" d="M168.891,552.257h-21.173c-0.263-0.801-0.888-5.016-1.863-12.65
				c-0.8-8.069-2.913-13.597-6.323-16.577c-3.425-2.967-9.342-4.459-17.777-4.459h-15.172v33.687h-18.9v-88.8h43.4
				c12.694,0,21.563,1.731,26.617,5.2c6.572,4.518,9.855,11.05,9.855,19.568c0,13.392-5.64,22.056-16.904,25.944
				c5.586,1.868,9.538,4.58,11.845,8.122c2.308,3.547,3.727,9.064,4.259,16.515C167.198,544.758,167.905,549.227,168.891,552.257z
				 M146.781,490.616c0-4.074-1.039-6.996-3.132-8.714c-2.093-1.736-5.591-2.604-10.489-2.604h-26.578v23.437h26.578
				C142.244,502.734,146.781,498.694,146.781,490.616z"/>
			<linearGradient id="SVGID_5_" gradientUnits="userSpaceOnUse" x1="221.9258" y1="463.457" x2="221.9258" y2="552.2568">
				<stop  offset="0" style="stop-color:#FAA61A"/>
				<stop  offset="1" style="stop-color:#F58220"/>
			</linearGradient>
			<path fill="url(#SVGID_5_)" d="M269.516,552.257h-22.037l-8.538-20.637H205.07l-8.547,20.637h-22.188l36.745-88.8h21.69
				L269.516,552.257z M234.688,515.77l-12.694-31.008l-12.68,31.008H234.688z"/>
			<linearGradient id="SVGID_6_" gradientUnits="userSpaceOnUse" x1="284.437" y1="463.457" x2="284.437" y2="552.2568">
				<stop  offset="0" style="stop-color:#FAA61A"/>
				<stop  offset="1" style="stop-color:#F58220"/>
			</linearGradient>
			<path fill="url(#SVGID_6_)" d="M293.884,552.257H274.99v-88.8h18.895V552.257z"/>
			<linearGradient id="SVGID_7_" gradientUnits="userSpaceOnUse" x1="350.7246" y1="463.457" x2="350.7246" y2="552.2568">
				<stop  offset="0" style="stop-color:#FAA61A"/>
				<stop  offset="1" style="stop-color:#F58220"/>
			</linearGradient>
			<path fill="url(#SVGID_7_)" d="M389.46,552.257h-23.163l-36.336-65.109v65.109h-17.973v-88.8h24.105l35.394,66.139v-66.139
				h17.973V552.257z"/>
			<linearGradient id="SVGID_8_" gradientUnits="userSpaceOnUse" x1="416.748" y1="463.457" x2="416.748" y2="552.2568">
				<stop  offset="0" style="stop-color:#FAA61A"/>
				<stop  offset="1" style="stop-color:#F58220"/>
			</linearGradient>
			<path fill="url(#SVGID_8_)" d="M426.2,552.257h-18.904v-88.8H426.2V552.257z"/>
			<linearGradient id="SVGID_9_" gradientUnits="userSpaceOnUse" x1="483.041" y1="463.457" x2="483.041" y2="552.2568">
				<stop  offset="0" style="stop-color:#FAA61A"/>
				<stop  offset="1" style="stop-color:#F58220"/>
			</linearGradient>
			<path fill="url(#SVGID_9_)" d="M521.781,552.257h-23.168l-36.336-65.109v65.109H444.3v-88.8h24.115l35.403,66.139v-66.139h17.963
				V552.257z"/>
			<linearGradient id="SVGID_10_" gradientUnits="userSpaceOnUse" x1="571.5674" y1="463.457" x2="571.5674" y2="552.2568">
				<stop  offset="0" style="stop-color:#FAA61A"/>
				<stop  offset="1" style="stop-color:#F58220"/>
			</linearGradient>
			<path fill="url(#SVGID_10_)" d="M612.035,552.257h-39.668c-12.25,0-21.344-2.313-27.291-6.933
				c-9.317-7.27-13.977-19.739-13.977-37.395c0-17.313,4.61-29.603,13.845-36.887c6.387-5.054,15.802-7.586,28.218-7.586h38.873
				v15.841h-36.6c-8.43,0-14.465,2.107-18.114,6.337c-3.634,4.205-5.459,11.245-5.459,21.095c0,11.709,2.137,19.827,6.386,24.358
				c3.381,3.562,9.328,5.333,17.852,5.333h17.04v-21.036h-24.769v-15.841h43.664V552.257z"/>
		</g>
	</g>
</g>
<rect y="534.231" display="none" width="612" height="201"/>
<g display="none">
	<g display="inline">
		<path fill="#FFFFFF" d="M345.208,578.061c-0.371-0.269-8.988-6.447-23.033-9.429v8.817c7.631,1.858,13.195,4.667,16.08,6.353
			c-0.561,6.102-3.055,20.905-14.057,36.93v-35.413l-2.023-1.069l-6.555-3.465v12.588h-11.663v-17.686
			c1.055-0.049,2.029-0.073,2.96-0.073c3.361,0,6.762,0.269,10.104,0.8l0.695,0.112v-8.696l-0.518-0.072
			c-3.395-0.48-6.854-0.724-10.281-0.724c-1.176,0-2.384,0.032-3.592,0.09c-2.468,0.119-4.969,0.366-7.434,0.732
			c-4.227,0.631-8.497,1.636-12.695,2.986l-0.416,0.136v9.082l0.803-0.287c3.908-1.392,7.873-2.447,11.795-3.139v35.414l8.579,4.533
			v-14.632h11.663v41.473l1.012-0.939c2.621-2.436,5.115-5.002,7.418-7.626c9.98-11.387,15.34-22.719,18.076-30.223
			c4.791-13.133,4.848-22.701,4.848-23.104v-2.183L345.208,578.061z"/>
		<path fill="#FFFFFF" d="M305.986,640.392c-16.308-13.332-24.2-28.211-27.952-38.382c-2.957-8.013-3.942-14.566-4.269-17.984
			c1.551-0.793,3.134-1.542,4.728-2.233v-9.276c-3.772,1.462-7.549,3.224-11.243,5.257l-2.223,1.22l-0.001,2.534
			c0,0.4,0.042,9.953,4.833,23.105c4.376,12.01,13.744,29.499,33.521,44.633l2.606,1.997l2.608-1.997
			c0.92-0.703,1.834-1.436,2.742-2.176V635.69C309.62,637.309,307.829,638.886,305.986,640.392z"/>
	</g>
	<g display="inline">
		<g>
			<polygon fill="#FFFFFF" points="256.934,691.818 247.181,691.818 247.181,683.601 244.6,683.601 244.6,702.136 247.181,702.136 
				247.181,694.28 256.934,694.28 256.934,702.136 259.516,702.136 259.516,683.601 256.934,683.601 			"/>
			<polygon fill="#FFFFFF" points="269.547,694.033 279.66,694.033 279.66,691.574 269.547,691.574 269.547,686.111 
				280.154,686.111 280.154,683.601 266.99,683.601 266.99,702.136 280.45,702.136 280.45,699.6 269.547,699.6 			"/>
			<path fill="#FFFFFF" d="M300.003,693.793c1.05-1.061,1.619-2.549,1.604-4.193c-0.028-2.981-2.202-5.999-6.298-5.999h-8.22v18.535
				h2.58v-6.545h3.812l5.967,6.545h3.455l-6.189-6.726C298.035,695.193,299.158,694.646,300.003,693.793z M295.31,686.085
				c1.081,0,1.99,0.342,2.63,0.989c0.624,0.634,0.974,1.546,0.963,2.5c-0.015,1.599-0.677,3.505-3.741,3.505h-5.493v-6.994H295.31z"
				/>
			<path fill="#FFFFFF" d="M316.591,683.332c-6.445,0-9.332,4.771-9.332,9.509c0,4.621,2.92,9.59,9.332,9.59
				c6.375,0,9.307-4.943,9.334-9.539c0.012-2.775-0.934-5.264-2.666-7.006C321.593,684.217,319.288,683.332,316.591,683.332z
				 M311.747,687.635c1.186-1.19,2.859-1.821,4.844-1.821c4.697,0,6.801,3.539,6.801,7.052c0,3.407-2.129,7.079-6.801,7.079
				c-4.625,0-6.756-3.674-6.775-7.083C309.804,690.756,310.489,688.901,311.747,687.635z"/>
			<polygon fill="#FFFFFF" points="335.315,694.033 345.429,694.033 345.429,691.574 335.315,691.574 335.315,686.111 
				345.923,686.111 345.923,683.601 332.757,683.601 332.757,702.136 346.216,702.136 346.216,699.6 335.315,699.6 			"/>
			<path fill="#FFFFFF" d="M360.294,691.395l-0.189-0.034c-2.963-0.553-4.766-1.008-4.766-2.646c0-2.795,4.133-2.877,4.598-2.877
				c2.076,0.026,3.668,0.385,4.703,2.047l0.322,0.52l2.182-1.286l-0.365-0.548c-1.787-2.669-4.023-3.215-6.836-3.215
				c-2.445,0-4.648,0.757-5.889,2.026c-0.891,0.904-1.326,2.047-1.297,3.386c0,3.707,3.662,4.426,6.896,5.059
				c3.133,0.597,5.182,1.136,5.164,3.088c0,2.736-3.41,3.03-4.875,3.03c-1.953,0-4.412-0.96-5.338-2.793l-0.279-0.555l-2.305,1.151
				l0.283,0.562c1.525,3.02,4.945,4.098,7.639,4.098c4.646,0,7.436-2.043,7.457-5.466
				C367.399,692.762,363.622,692.037,360.294,691.395z"/>
		</g>
		<g>
			<path fill="#FFFFFF" d="M260.207,662.59h-5.864v14.604h-3.783V662.59h-5.674v-3.171h15.321V662.59z"/>
			<path fill="#FFFFFF" d="M278.407,677.194h-4.238c-0.052-0.16-0.177-1.004-0.374-2.532c-0.159-1.615-0.583-2.722-1.265-3.318
				c-0.685-0.594-1.87-0.893-3.559-0.893h-3.037v6.743h-3.783v-17.775h8.687c2.541,0,4.316,0.347,5.328,1.041
				c1.316,0.904,1.973,2.212,1.973,3.917c0,2.681-1.129,4.415-3.384,5.193c1.118,0.374,1.909,0.917,2.371,1.626
				c0.462,0.71,0.746,1.814,0.853,3.306C278.069,675.693,278.21,676.588,278.407,677.194z M273.982,664.855
				c0-0.815-0.208-1.4-0.628-1.744c-0.418-0.348-1.119-0.521-2.099-0.521h-5.321v4.691h5.321
				C273.074,667.281,273.982,666.473,273.982,664.855z"/>
			<path fill="#FFFFFF" d="M298.55,677.194h-4.411l-1.709-4.131h-6.78l-1.711,4.131h-4.441l7.356-17.775h4.342L298.55,677.194z
				 M291.579,669.891l-2.541-6.207l-2.539,6.207H291.579z"/>
			<path fill="#FFFFFF" d="M303.428,677.194h-3.783v-17.775h3.783V677.194z"/>
			<path fill="#FFFFFF" d="M322.56,677.194h-4.637l-7.273-13.033v13.033h-3.598v-17.775h4.826l7.084,13.239v-13.239h3.598V677.194z"
				/>
			<path fill="#FFFFFF" d="M329.915,677.194h-3.785v-17.775h3.785V677.194z"/>
			<path fill="#FFFFFF" d="M349.048,677.194h-4.639l-7.273-13.033v13.033h-3.598v-17.775h4.826l7.088,13.239v-13.239h3.596V677.194z
				"/>
			<path fill="#FFFFFF" d="M367.114,677.194h-7.941c-2.451,0-4.271-0.463-5.463-1.388c-1.865-1.455-2.797-3.951-2.797-7.485
				c0-3.466,0.922-5.926,2.771-7.384c1.277-1.012,3.162-1.519,5.648-1.519h7.781v3.171h-7.326c-1.688,0-2.896,0.422-3.627,1.269
				c-0.727,0.842-1.092,2.251-1.092,4.223c0,2.344,0.428,3.969,1.277,4.876c0.678,0.713,1.867,1.067,3.574,1.067h3.41v-4.211h-4.957
				v-3.171h8.74V677.194z"/>
		</g>
	</g>
</g>
</svg>
