<?xml version="1.0" encoding="iso-8859-1"?>
<!-- Generator: Adobe Illustrator 16.0.0, SVG Export Plug-In . SVG Version: 6.00 Build 0)  -->
<!DOCTYPE svg PUBLIC "-//W3C//DTD SVG 1.1//EN" "http://www.w3.org/Graphics/SVG/1.1/DTD/svg11.dtd">
<svg version="1.1" id="marketing.svg" xmlns="http://www.w3.org/2000/svg" xmlns:xlink="http://www.w3.org/1999/xlink" x="0px"
	 y="0px" width="612px" height="792px" viewBox="0 0 612 792" style="enable-background:new 0 0 612 792;" xml:space="preserve">
<path d="M452.569,270.689v-93.424H336.677v13.27L96.082,261.883H0v182.458h84.317l53.355,170.394l113.482-35.485l-30.673-98.01
	l116.195,34.464v13.272h115.893v-93.4c37.153-9.005,64.834-42.548,64.834-82.458C517.403,313.221,489.723,279.691,452.569,270.689z
	 M79.026,404.438H39.904v-102.65h39.122V404.438z M163.833,564.745L129.21,454.166l45.177,13.402l26.762,85.509L163.833,564.745z
	 M336.677,474.078l-217.746-64.584V296.728l217.746-64.57V474.078z M412.665,489.071h-36.084V217.169h36.084V489.071z
	 M452.569,393.32v-80.383c14.751,7.369,24.93,22.589,24.93,40.178C477.499,370.718,467.32,385.948,452.569,393.32z M532.219,280.971
	l-28.214-28.222l48.282-48.269l28.215,28.222L532.219,280.971z M532.158,425.29l48.286,48.273l-28.212,28.22l-48.287-48.272
	L532.158,425.29z M612,333.184v39.904h-68.268v-39.904H612z"/>
</svg>
